<?xml version="1.0" encoding="utf-8"?>
<!-- Generator: Adobe Illustrator 21.1.0, SVG Export Plug-In . SVG Version: 6.00 Build 0)  -->
<svg version="1.1" id="Layer_1" xmlns="http://www.w3.org/2000/svg" xmlns:xlink="http://www.w3.org/1999/xlink" x="0px" y="0px"
	 viewBox="0 0 50 50" style="enable-background:new 0 0 50 50;" xml:space="preserve">
<style type="text/css">
	.st0{fill:#8EBD32;}
	.st1{fill:#FFFFFF;}
</style>
<circle class="st0" cx="25" cy="25" r="25"/>
<g>
	<path class="st1" d="M25,14.4c3.5,0,3.9,0,5.2,0.1c1.3,0.1,1.9,0.3,2.4,0.4c0.6,0.2,1,0.5,1.5,1c0.5,0.5,0.7,0.9,1,1.5
		c0.2,0.5,0.4,1.1,0.4,2.4c0.1,1.4,0.1,1.8,0.1,5.2s0,3.9-0.1,5.2c-0.1,1.3-0.3,1.9-0.4,2.4c-0.2,0.6-0.5,1-1,1.5
		c-0.5,0.5-0.9,0.7-1.5,1c-0.5,0.2-1.1,0.4-2.4,0.4c-1.4,0.1-1.8,0.1-5.2,0.1s-3.9,0-5.2-0.1c-1.3-0.1-1.9-0.3-2.4-0.4
		c-0.6-0.2-1-0.5-1.5-1c-0.5-0.5-0.7-0.9-1-1.5c-0.2-0.5-0.4-1.1-0.4-2.4c-0.1-1.4-0.1-1.8-0.1-5.2s0-3.9,0.1-5.2
		c0.1-1.3,0.3-1.9,0.4-2.4c0.2-0.6,0.5-1,1-1.5c0.5-0.5,0.9-0.7,1.5-1c0.5-0.2,1.1-0.4,2.4-0.4C21.1,14.4,21.5,14.4,25,14.4
		 M25,12.1c-3.5,0-4,0-5.3,0.1c-1.4,0.1-2.3,0.3-3.1,0.6c-0.9,0.3-1.6,0.8-2.3,1.5c-0.7,0.7-1.2,1.4-1.5,2.3
		c-0.3,0.8-0.5,1.8-0.6,3.1c-0.1,1.4-0.1,1.8-0.1,5.3c0,3.5,0,4,0.1,5.3c0.1,1.4,0.3,2.3,0.6,3.1c0.3,0.9,0.8,1.6,1.5,2.3
		c0.7,0.7,1.4,1.2,2.3,1.5c0.8,0.3,1.8,0.5,3.1,0.6c1.4,0.1,1.8,0.1,5.3,0.1s4,0,5.3-0.1c1.4-0.1,2.3-0.3,3.1-0.6
		c0.9-0.3,1.6-0.8,2.3-1.5s1.2-1.4,1.5-2.3c0.3-0.8,0.5-1.8,0.6-3.1c0.1-1.4,0.1-1.8,0.1-5.3s0-4-0.1-5.3c-0.1-1.4-0.3-2.3-0.6-3.1
		c-0.3-0.9-0.8-1.6-1.5-2.3c-0.7-0.7-1.4-1.2-2.3-1.5c-0.8-0.3-1.8-0.5-3.1-0.6C29,12.1,28.5,12.1,25,12.1L25,12.1z"/>
	<path class="st1" d="M25,18.4c-3.7,0-6.6,3-6.6,6.6s3,6.6,6.6,6.6s6.6-3,6.6-6.6S28.7,18.4,25,18.4z M25,29.3
		c-2.4,0-4.3-1.9-4.3-4.3s1.9-4.3,4.3-4.3s4.3,1.9,4.3,4.3S27.4,29.3,25,29.3z"/>
	<circle class="st1" cx="31.9" cy="18.1" r="1.6"/>
</g>
</svg>
